<svg width="316" height="301" viewBox="0 0 316 301" fill="none" xmlns="http://www.w3.org/2000/svg">
<path fill-rule="evenodd" clip-rule="evenodd" d="M132.364 23.9829C173.359 25.5244 214.183 31.6123 245.836 57.5902C280.813 86.2961 312.608 125.448 310.937 170.541C309.298 214.769 273.682 249.371 237.763 275.456C207.447 297.472 169.76 303.337 132.364 300.225C98.4629 297.403 65.2333 285.091 43.2309 259.264C22.6896 235.153 26.8152 201.772 21.8832 170.541C15.2666 128.643 -15.5913 82.6454 9.98159 48.7215C35.954 14.2678 89.1208 22.3568 132.364 23.9829Z" fill="#FFD6AD"/>
<circle cx="68.2056" cy="136.403" r="25.2056" fill="#FCA34D"/>
<path d="M76.0081 143.026L79.2702 146.287C79.4223 146.444 79.5065 146.655 79.5046 146.874C79.5027 147.093 79.4149 147.303 79.26 147.457C79.1052 147.612 78.8957 147.7 78.6768 147.702C78.4578 147.704 78.2468 147.62 78.0893 147.468L74.8272 144.205C72.6955 146.032 69.9393 146.962 67.1369 146.8C64.3345 146.638 61.7037 145.396 59.7967 143.337C57.8896 141.277 56.8545 138.558 56.9085 135.752C56.9626 132.945 58.1015 130.269 60.0864 128.284C62.0714 126.299 64.7479 125.16 67.5545 125.106C70.3611 125.052 73.0795 126.087 75.1393 127.994C77.1991 129.901 78.4403 132.532 78.6023 135.334C78.7642 138.137 77.8345 140.893 76.0081 143.025V143.026ZM67.7636 145.148C70.2 145.148 72.5367 144.18 74.2595 142.457C75.9823 140.734 76.9502 138.397 76.9502 135.961C76.9502 133.524 75.9823 131.188 74.2595 129.465C72.5367 127.742 70.2 126.774 67.7636 126.774C65.3271 126.774 62.9905 127.742 61.2677 129.465C59.5448 131.188 58.577 133.524 58.577 135.961C58.577 138.397 59.5448 140.734 61.2677 142.457C62.9905 144.18 65.3271 145.148 67.7636 145.148V145.148Z" fill="white"/>
<path d="M211.759 56.4036H210.454V20.6781C210.455 17.9627 209.92 15.2739 208.881 12.7652C207.842 10.2565 206.319 7.97694 204.399 6.05679C202.479 4.13665 200.2 2.61348 197.691 1.57425C195.182 0.535022 192.493 9.2613e-05 189.778 0H114.088C108.604 0 103.345 2.17847 99.4674 6.05617C95.5897 9.93387 93.4112 15.1932 93.4112 20.677V216.671C93.4112 222.155 95.5897 227.414 99.4674 231.292C103.345 235.17 108.604 237.348 114.088 237.348H189.778C195.262 237.348 200.521 235.17 204.399 231.292C208.277 227.414 210.455 222.155 210.455 216.671V81.8337H211.76L211.759 56.4036Z" fill="#3F3D56"/>
<path d="M206.054 20.8223V216.527C206.054 220.623 204.427 224.55 201.531 227.446C198.635 230.342 194.708 231.969 190.612 231.969H114.559C110.464 231.969 106.536 230.342 103.64 227.446C100.745 224.55 99.1176 220.623 99.1175 216.527V20.8223C99.1179 16.7272 100.745 12.7998 103.641 9.90416C106.536 7.00849 110.464 5.38166 114.559 5.38147H123.786C123.332 6.49552 123.16 7.70392 123.283 8.90035C123.406 10.0968 123.821 11.2446 124.492 12.2428C125.163 13.2411 126.069 14.0591 127.131 14.625C128.192 15.1909 129.376 15.4873 130.579 15.4881H173.941C175.143 15.4872 176.327 15.1908 177.389 14.6249C178.45 14.0589 179.356 13.2409 180.027 12.2427C180.698 11.2445 181.113 10.0967 181.236 8.90027C181.36 7.70386 181.187 6.49549 180.734 5.38147H190.612C194.708 5.38156 198.635 7.00851 201.531 9.90441C204.427 12.8003 206.054 16.728 206.054 20.8234V20.8223Z" fill="white"/>
<path d="M109.733 24.8977C110.157 24.8977 110.501 24.5539 110.501 24.1297C110.501 23.7056 110.157 23.3617 109.733 23.3617C109.308 23.3617 108.965 23.7056 108.965 24.1297C108.965 24.5539 109.308 24.8977 109.733 24.8977Z" fill="#3F3D56"/>
<path d="M112.549 24.8977C112.973 24.8977 113.317 24.5539 113.317 24.1297C113.317 23.7056 112.973 23.3617 112.549 23.3617C112.125 23.3617 111.781 23.7056 111.781 24.1297C111.781 24.5539 112.125 24.8977 112.549 24.8977Z" fill="#3F3D56"/>
<path d="M115.365 24.8977C115.789 24.8977 116.133 24.5539 116.133 24.1297C116.133 23.7056 115.789 23.3617 115.365 23.3617C114.941 23.3617 114.597 23.7056 114.597 24.1297C114.597 24.5539 114.941 24.8977 115.365 24.8977Z" fill="#3F3D56"/>
<path d="M195.76 22.0817H187.823V23.1057H195.76V22.0817Z" fill="#3F3D56"/>
<path d="M195.76 23.6177H187.823V24.6417H195.76V23.6177Z" fill="#3F3D56"/>
<path d="M195.76 25.1541H187.823V26.1781H195.76V25.1541Z" fill="#3F3D56"/>
<path d="M155.071 37.3739H116.156C114.423 37.3759 112.762 38.1721 111.536 39.5879C110.311 41.0038 109.621 42.9237 109.618 44.9265V138.975H183.717V70.4835C183.709 61.7054 180.688 53.2897 175.317 47.0826C169.947 40.8756 162.666 37.384 155.071 37.3739V37.3739Z" fill="white"/>
<path d="M170.891 130.508H122.444C122.026 130.508 121.624 130.711 121.328 131.072C121.032 131.432 120.865 131.922 120.865 132.432C120.865 132.943 121.032 133.432 121.328 133.793C121.624 134.154 122.026 134.356 122.444 134.356H170.891C171.31 134.356 171.712 134.154 172.008 133.793C172.304 133.432 172.47 132.943 172.47 132.432C172.47 131.922 172.304 131.432 172.008 131.072C171.712 130.711 171.31 130.508 170.891 130.508V130.508Z" fill="#E4E4E4"/>
<path d="M170.891 157.448H122.444C122.026 157.448 121.624 157.65 121.328 158.011C121.032 158.372 120.865 158.861 120.865 159.372C120.865 159.882 121.032 160.372 121.328 160.732C121.624 161.093 122.026 161.296 122.444 161.296H170.891C171.31 161.296 171.712 161.093 172.008 160.732C172.304 160.372 172.47 159.882 172.47 159.372C172.47 158.861 172.304 158.372 172.008 158.011C171.712 157.65 171.31 157.448 170.891 157.448V157.448Z" fill="#E4E4E4"/>
<path d="M170.891 188.236H122.444C122.026 188.236 121.624 188.438 121.328 188.799C121.032 189.16 120.865 189.65 120.865 190.16C120.865 190.67 121.032 191.16 121.328 191.521C121.624 191.881 122.026 192.084 122.444 192.084H170.891C171.31 192.084 171.712 191.881 172.008 191.521C172.304 191.16 172.47 190.67 172.47 190.16C172.47 189.65 172.304 189.16 172.008 188.799C171.712 188.438 171.31 188.236 170.891 188.236V188.236Z" fill="#E4E4E4"/>
<path d="M170.89 123.581H122.446C122.027 123.581 121.625 123.783 121.328 124.144C121.032 124.505 120.865 124.994 120.865 125.505C120.865 126.015 121.032 126.505 121.328 126.865C121.625 127.226 122.027 127.429 122.446 127.429H170.89C171.309 127.429 171.711 127.226 172.007 126.865C172.304 126.505 172.47 126.015 172.47 125.505C172.47 124.994 172.304 124.505 172.007 124.144C171.711 123.783 171.309 123.581 170.89 123.581V123.581Z" fill="#E4E4E4"/>
<path d="M170.89 150.52H122.446C122.027 150.52 121.625 150.723 121.328 151.084C121.032 151.445 120.865 151.934 120.865 152.444C120.865 152.955 121.032 153.444 121.328 153.805C121.625 154.166 122.027 154.369 122.446 154.369H170.89C171.309 154.369 171.711 154.166 172.007 153.805C172.304 153.444 172.47 152.955 172.47 152.444C172.47 151.934 172.304 151.445 172.007 151.084C171.711 150.723 171.309 150.52 170.89 150.52V150.52Z" fill="#E4E4E4"/>
<path d="M170.89 180.539H122.446C122.027 180.539 121.625 180.741 121.328 181.102C121.032 181.463 120.865 181.952 120.865 182.463C120.865 182.973 121.032 183.463 121.328 183.823C121.625 184.184 122.027 184.387 122.446 184.387H170.89C171.309 184.387 171.711 184.184 172.007 183.823C172.304 183.463 172.47 182.973 172.47 182.463C172.47 181.952 172.304 181.463 172.007 181.102C171.711 180.741 171.309 180.539 170.89 180.539V180.539Z" fill="#E4E4E4"/>
<path d="M143.745 115.884H122.465C122.041 115.884 121.634 116.086 121.334 116.447C121.034 116.808 120.865 117.297 120.865 117.808C120.865 118.318 121.034 118.808 121.334 119.168C121.634 119.529 122.041 119.732 122.465 119.732H143.745C144.169 119.732 144.576 119.529 144.876 119.168C145.176 118.808 145.345 118.318 145.345 117.808C145.345 117.297 145.176 116.808 144.876 116.447C144.576 116.086 144.169 115.884 143.745 115.884V115.884Z" fill="#E4E4E4"/>
<path d="M143.745 142.823H122.465C122.041 142.823 121.634 143.026 121.334 143.387C121.034 143.748 120.865 144.237 120.865 144.747C120.865 145.258 121.034 145.747 121.334 146.108C121.634 146.469 122.041 146.672 122.465 146.672H143.745C144.169 146.672 144.576 146.469 144.876 146.108C145.176 145.747 145.345 145.258 145.345 144.747C145.345 144.237 145.176 143.748 144.876 143.387C144.576 143.026 144.169 142.823 143.745 142.823V142.823Z" fill="#E4E4E4"/>
<path d="M143.745 173.611H122.465C122.041 173.611 121.634 173.814 121.334 174.175C121.034 174.536 120.865 175.025 120.865 175.535C120.865 176.046 121.034 176.535 121.334 176.896C121.634 177.257 122.041 177.46 122.465 177.46H143.745C144.169 177.46 144.576 177.257 144.876 176.896C145.176 176.535 145.345 176.046 145.345 175.535C145.345 175.025 145.176 174.536 144.876 174.175C144.576 173.814 144.169 173.611 143.745 173.611V173.611Z" fill="#E4E4E4"/>
<path d="M170.89 101.259H122.446C122.027 101.259 121.625 101.421 121.328 101.71C121.032 101.999 120.865 102.39 120.865 102.799C120.865 103.207 121.032 103.598 121.328 103.887C121.625 104.176 122.027 104.338 122.446 104.338H170.89C171.309 104.338 171.711 104.176 172.007 103.887C172.304 103.598 172.47 103.207 172.47 102.799C172.47 102.39 172.304 101.999 172.007 101.71C171.711 101.421 171.309 101.259 170.89 101.259Z" fill="#E4E4E4"/>
<path d="M170.891 94.3319H122.444C122.026 94.3319 121.624 94.4941 121.328 94.7828C121.032 95.0715 120.865 95.463 120.865 95.8713C120.865 96.2796 121.032 96.6711 121.328 96.9598C121.624 97.2485 122.026 97.4107 122.444 97.4107H170.891C171.31 97.4107 171.712 97.2485 172.008 96.9598C172.304 96.6711 172.47 96.2796 172.47 95.8713C172.47 95.463 172.304 95.0715 172.008 94.7828C171.712 94.4941 171.31 94.3319 170.891 94.3319V94.3319Z" fill="#E4E4E4"/>
<path d="M143.743 86.6349H122.467C122.042 86.6349 121.635 86.8376 121.335 87.1985C121.034 87.5594 120.865 88.0488 120.865 88.5591C120.865 89.0695 121.034 89.5589 121.335 89.9198C121.635 90.2807 122.042 90.4834 122.467 90.4834H143.743C144.168 90.4834 144.575 90.2807 144.876 89.9198C145.176 89.5589 145.345 89.0695 145.345 88.5591C145.345 88.0488 145.176 87.5594 144.876 87.1985C144.575 86.8376 144.168 86.6349 143.743 86.6349Z" fill="#E4E4E4"/>
<path d="M170.89 71.2408H122.446C122.027 71.2408 121.625 71.4436 121.328 71.8044C121.032 72.1653 120.865 72.6548 120.865 73.1651C120.865 73.6754 121.032 74.1649 121.328 74.5258C121.625 74.8866 122.027 75.0894 122.446 75.0894H170.89C171.309 75.0894 171.711 74.8866 172.007 74.5258C172.304 74.1649 172.47 73.6754 172.47 73.1651C172.47 72.6548 172.304 72.1653 172.007 71.8044C171.711 71.4436 171.309 71.2408 170.89 71.2408Z" fill="#130160"/>
<path d="M170.89 64.3135H122.446C122.027 64.3135 121.625 64.4757 121.328 64.7644C121.032 65.0531 120.865 65.4446 120.865 65.8529C120.865 66.2612 121.032 66.6527 121.328 66.9414C121.625 67.2301 122.027 67.3923 122.446 67.3923H170.89C171.309 67.3923 171.711 67.2301 172.007 66.9414C172.304 66.6527 172.47 66.2612 172.47 65.8529C172.47 65.4446 172.304 65.0531 172.007 64.7644C171.711 64.4757 171.309 64.3135 170.89 64.3135Z" fill="#130160"/>
<path d="M143.743 56.6165H122.467C122.042 56.6165 121.635 56.8192 121.335 57.1801C121.034 57.5409 120.865 58.0304 120.865 58.5407C120.865 59.0511 121.034 59.5405 121.335 59.9014C121.635 60.2622 122.042 60.465 122.467 60.465H143.743C144.168 60.465 144.575 60.2622 144.876 59.9014C145.176 59.5405 145.345 59.0511 145.345 58.5407C145.345 58.0304 145.176 57.5409 144.876 57.1801C144.575 56.8192 144.168 56.6165 143.743 56.6165Z" fill="#130160"/>
<path d="M307.39 93.6024L292.94 72.1364L278.55 83.4053L292.141 93.9461L294.934 127.624C294.073 128.529 293.495 129.665 293.27 130.892C293.046 132.119 293.184 133.385 293.669 134.535C294.154 135.685 294.965 136.669 296.002 137.368C297.039 138.068 298.257 138.451 299.509 138.472C300.761 138.493 301.992 138.15 303.052 137.486C304.111 136.822 304.954 135.865 305.478 134.732C306.001 133.599 306.183 132.339 306 131.105C305.816 129.871 305.277 128.717 304.447 127.783L307.39 93.6024Z" fill="#FFB6B6"/>
<path d="M272.987 52.3507C280.631 50.9259 295.788 74.4676 295.788 74.4676C293.987 74.506 307.883 88.4546 306.404 89.1286C302.198 91.0444 292.173 92.5405 290.618 95.1263C289.729 96.6051 280.866 86.539 280.866 86.539C280.866 86.539 275.328 81.2888 268.337 74.3933C266.324 72.4804 264.829 70.0911 263.993 67.4479C263.156 64.8047 263.004 61.9936 263.551 59.2761C263.551 59.2761 265.342 53.7756 272.987 52.3507Z" fill="#130160"/>
<g filter="url(#filter0_d_1_121)">
<path d="M280.235 242.824L280.772 230.798C286.368 227.818 292.61 226.243 298.955 226.212C290.222 233.326 291.314 247.039 285.393 256.605C283.523 259.575 281.007 262.087 278.03 263.956C275.054 265.825 271.693 267.003 268.198 267.402L260.889 271.86C259.887 266.29 260.108 260.569 261.537 255.093C262.967 249.616 265.572 244.513 269.171 240.136C271.215 237.7 273.559 235.531 276.147 233.678C277.897 238.277 280.235 242.824 280.235 242.824Z" fill="#E6E1FF"/>
<path d="M261.405 265.671L254.787 265.67L251.639 240.239L261.406 240.24L261.405 265.671Z" fill="#FFB6B6"/>
<path d="M263.093 272.062L241.755 272.061V271.792C241.755 269.598 242.631 267.493 244.188 265.941C245.745 264.39 247.858 263.518 250.06 263.518H250.061L253.958 260.571L261.23 263.518L263.093 263.518L263.093 272.062Z" fill="#2F2E41"/>
<path d="M230.661 265.671L224.044 265.67L220.896 240.239L230.663 240.24L230.661 265.671Z" fill="#FFB6B6"/>
<path d="M232.349 272.062L211.012 272.061V271.792C211.012 269.598 211.887 267.493 213.444 265.941C215.002 264.39 217.114 263.518 219.317 263.518H219.317L223.215 260.571L230.487 263.518L232.35 263.518L232.349 272.062Z" fill="#2F2E41"/>
<path d="M227.797 126.637L270.84 127.709C279.015 132.133 279.139 141.708 276.46 153.076C276.46 153.076 277.364 159.833 275.556 161.634C273.748 163.436 272.843 163.436 273.748 166.589C274.652 169.743 269.874 174.893 270.455 175.471C271.035 176.049 272.391 179.202 272.391 179.202L267.87 204.878C267.87 204.878 264.705 249.474 263.801 250.375C262.897 251.276 261.993 250.375 262.897 252.627C263.801 254.879 264.705 253.978 263.801 254.879C263 255.74 262.246 256.642 261.541 257.582H250.61C250.61 257.582 249.786 253.077 249.786 252.627C249.786 252.176 248.882 249.474 248.882 249.023C248.882 248.573 249.681 247.776 249.681 247.776C249.957 246.861 250.144 245.921 250.238 244.969C250.238 244.068 252.951 209.383 252.951 209.383L247.525 164.337L234.414 208.482C234.414 208.482 234.414 247.221 233.51 248.122C232.606 249.023 232.606 248.573 233.058 250.375C233.51 252.176 235.318 251.726 233.962 253.077C232.606 254.429 232.154 252.176 232.606 254.429L233.058 256.681L219.494 256.874C219.494 256.874 217.686 253.077 218.59 251.726C219.494 250.375 219.44 250.743 218.337 248.532C217.234 246.32 216.782 245.87 217.234 245.42C217.686 244.969 217.686 242.573 217.686 242.573L219.947 199.473C219.947 199.473 220.399 153.977 220.399 152.625C220.433 151.93 220.304 151.236 220.023 150.599V148.764L221.755 142.265L227.797 126.637Z" fill="#69687F"/>
<path d="M253.654 37.4631C261.04 37.4631 267.027 31.4974 267.027 24.1384C267.027 16.7793 261.04 10.8136 253.654 10.8136C246.268 10.8136 240.28 16.7793 240.28 24.1384C240.28 31.4974 246.268 37.4631 253.654 37.4631Z" fill="#FFB6B6"/>
<path d="M246.967 46.27C244.086 47.9766 242.362 51.1122 241.373 54.3031C239.541 60.2105 238.439 66.3182 238.089 72.4913L237.044 90.9725L224.102 130.324C235.319 139.78 277.48 132.473 277.48 132.473C277.48 132.473 278.775 132.043 277.48 130.754C276.186 129.464 274.926 130.607 276.22 129.317C277.515 128.028 276.622 129.464 276.191 128.175C275.76 126.885 276.191 127.745 276.622 127.315C277.054 126.885 273.283 123.017 273.283 123.017L276.734 100.429L281.048 54.8665C275.871 48.4191 265.46 44.6183 265.46 44.6183L262.77 39.7937L249.319 40.8658L246.967 46.27Z" fill="#130160"/>
<path d="M245.132 16.3184C245.65 16.3225 246.165 16.3898 246.666 16.5189C247.654 16.7555 248.657 16.9231 249.668 17.0204C252.764 17.3107 255.673 18.6262 257.93 20.7569C260.188 22.8877 261.664 25.7107 262.122 28.7752C262.899 28.1001 264.668 26.8584 266.117 28.0125C266.139 28.0308 266.152 28.0402 266.203 28.0161C267.165 27.5612 268.874 21.9613 268.926 17.0307C268.953 14.4137 268.54 11.0719 266.415 10.0136L266.303 9.95785L266.274 9.83666C266.132 9.24798 264.546 8.24311 261.791 7.461C256.782 6.03969 249.317 3.27094 245.113 7.34563C244.795 8.71931 243.76 11.659 242.714 11.9922C241.556 12.361 240.556 12.6793 240.399 14.0943C240.267 16.108 240.277 18.1284 240.427 20.1408C240.82 18.9094 241.59 17.8316 242.629 17.0592C243.368 16.5635 244.242 16.305 245.132 16.3184V16.3184Z" fill="#2F2E41"/>
<path d="M220.24 89.9435L242.086 76.0039L231.083 61.4307L220.218 74.7466L186.366 76.8153C185.475 75.9383 184.348 75.3385 183.121 75.0888C181.895 74.8392 180.622 74.9505 179.457 75.4092C178.293 75.868 177.288 76.6544 176.565 77.6724C175.841 78.6905 175.431 79.8963 175.383 81.1428C175.336 82.3894 175.653 83.6227 176.297 84.6925C176.941 85.7624 177.883 86.6224 179.009 87.1679C180.135 87.7133 181.396 87.9205 182.638 87.7643C183.88 87.6081 185.05 87.0951 186.005 86.288L220.24 89.9435Z" fill="#FFB6B6"/>
<path d="M262.362 56.5473C263.63 64.1925 239.686 78.7916 239.686 78.7916C239.686 76.9972 225.395 90.5442 224.75 89.0559C222.917 84.8262 221.628 74.8078 219.066 73.2043C217.601 72.2872 227.889 63.6726 227.889 63.6726C227.889 63.6726 233.275 58.2669 240.342 51.4485C242.304 49.4839 244.733 48.0459 247.403 47.2683C250.073 46.4907 252.898 46.3988 255.613 47.0012C255.613 47.0012 261.094 48.902 262.362 56.5473Z" fill="#130160"/>
<path d="M311.082 272.168C311.082 272.252 311.065 272.335 311.033 272.412C311.001 272.49 310.954 272.56 310.895 272.62C310.835 272.679 310.764 272.726 310.687 272.758C310.609 272.79 310.525 272.806 310.441 272.806H159.636C159.466 272.806 159.303 272.739 159.183 272.619C159.063 272.499 158.995 272.337 158.995 272.168C158.995 271.999 159.063 271.837 159.183 271.717C159.303 271.597 159.466 271.53 159.636 271.53H310.441C310.525 271.53 310.609 271.546 310.687 271.578C310.764 271.61 310.835 271.657 310.895 271.716C310.954 271.776 311.001 271.846 311.033 271.924C311.065 272.001 311.082 272.084 311.082 272.168Z" fill="#130160"/>
</g>
<defs>
<filter id="filter0_d_1_121" x="154.995" y="5.21497" width="160.086" height="275.591" filterUnits="userSpaceOnUse" color-interpolation-filters="sRGB">
<feFlood flood-opacity="0" result="BackgroundImageFix"/>
<feColorMatrix in="SourceAlpha" type="matrix" values="0 0 0 0 0 0 0 0 0 0 0 0 0 0 0 0 0 0 127 0" result="hardAlpha"/>
<feOffset dy="4"/>
<feGaussianBlur stdDeviation="2"/>
<feComposite in2="hardAlpha" operator="out"/>
<feColorMatrix type="matrix" values="0 0 0 0 0 0 0 0 0 0 0 0 0 0 0 0 0 0 0.25 0"/>
<feBlend mode="normal" in2="BackgroundImageFix" result="effect1_dropShadow_1_121"/>
<feBlend mode="normal" in="SourceGraphic" in2="effect1_dropShadow_1_121" result="shape"/>
</filter>
</defs>
</svg>
